<?xml version="1.0" standalone="yes"?>
<svg xmlns="http://www.w3.org/2000/svg" width="1313" height="1600">
<path style="fill:#141515; stroke:none;" d="M676 266C674.192 259.883 674.919 253.26 673.243 247C671.036 238.756 665.088 230.856 666.305 222C667.34 214.469 674.684 204.53 682 212L684 212C687.042 205.52 683.279 200.486 676 201.179C670.728 201.681 666.646 204.739 663.649 209.001C653.473 223.472 665.106 237.718 667.678 252C669.137 260.099 669.601 268.794 669.961 277C670.183 282.079 669.547 287.084 671 292C674.626 288.462 674.442 283.772 675.453 279C676.657 273.317 678.857 267.433 680.914 262C689.546 239.208 701.416 211.501 722 197C724.562 202.38 728.829 208.21 735.015 209.606C745.925 212.067 749.776 202.019 743.581 194.015C742.291 192.348 740.722 190.862 738.996 189.652C727.707 181.738 719.631 191.268 712.004 199C694.93 216.308 680.94 242.132 676 266M844 301C851.82 302.614 850.914 297.115 854.573 292C856.912 288.729 860.028 285.856 863 283.17C878.729 268.957 898.514 254.314 919 248C919.714 258.744 930.897 269.657 941 272.507C948.199 274.537 957.949 274.57 958.887 265C960.2 251.609 941.367 245.036 931 242.089C927.917 241.213 924.233 240.014 921 240.235C914.645 240.669 907.55 246.208 902 249.079C881.259 259.813 863.759 273.891 848 291C845.144 284.256 839.523 279.382 834 274.754C824.351 266.669 813.934 258.402 802 254L802 252C810.687 249.493 818.356 243.494 826 238.811C843.403 228.149 860.191 215.915 878 206C880.731 216.246 893.937 222.185 903.996 220.866C911.706 219.856 913.317 212.541 908.657 207.054C900.986 198.023 886.852 196.252 876 199.506C869.404 201.484 862.73 207.225 857 211.003C845.271 218.735 833.476 226.344 821.83 234.204C815.564 238.433 809.131 242.435 803.001 246.86C800.383 248.749 797.084 250.64 796.337 254.039C794.783 261.114 806.27 263.67 811 266.309C820.368 271.535 829.271 278.626 836.999 286.039C842.083 290.916 845.701 293.818 844 301M660 407L663 407C664.149 392.559 671.783 379.579 680.001 368C696.003 345.454 717.363 323.115 742 310C742.207 314.525 743.215 318.987 745.417 323C750.011 331.374 765.561 342.552 772.972 330.532C778.988 320.776 767.323 306.526 759 303L760 299C754.879 297.606 750.669 299.577 746 301.781C737.897 305.606 730.168 310.284 723 315.665C705.778 328.595 690.129 344.488 677.579 362C667.661 375.84 660.002 389.656 660 407M496 577C455.01 547.528 429.429 502.323 414.659 455C408.655 435.764 403.013 415.333 403 395C412.896 392.628 418.343 379.414 418.906 370C419.252 364.204 416.818 357.195 409.999 357.113C402.7 357.026 396.312 365.219 396.019 372C395.276 389.214 398.53 406.114 401.576 423C410.119 470.367 429.928 518.385 463.09 554C470.915 562.405 479.538 570.438 489 576.974C495.542 581.494 503.907 584.839 509 591C500.104 588.876 490.899 588.043 482 585.714C472.378 583.195 462.883 578.989 454 574.564C403.225 549.272 362.48 495.047 362 437C374.243 435.738 381.241 421.947 383.485 411C384.711 405.023 384.597 394.859 376 395.438C366.477 396.08 357.503 409.408 356.965 418C356.692 422.359 355.383 426.644 355.259 431C354.81 446.877 358.122 463.892 362.826 479C376.43 522.684 410.013 559.764 451 579.741C464.266 586.207 477.812 589.505 492 593C482.879 598.081 473.137 598 463 598C452.52 598 442.395 597.855 432 596.424C382.744 589.639 335.763 574.271 300.015 538.004C296.33 534.266 288.107 527.594 287.689 522C287.449 518.795 290.736 515.594 292.265 513C296.049 506.578 298.766 497.571 297.807 490C297.216 485.327 294.088 481.042 289 481.167C277.278 481.458 272.132 500.718 273.174 510C273.93 516.723 278.965 521.051 283.079 526C291.227 535.799 299.192 545.33 309 553.562C351.704 589.404 409.542 602 464 602C457.228 604.997 450.234 605.357 443 606.427C429.167 608.475 415.96 609.673 402 610.015C393.303 610.228 384.765 611.344 376 610.961C341.107 609.433 307.322 603.436 275 590L275 588C288.091 580.078 279.2 552.075 263.001 555.409C250.861 557.907 249.645 575.741 256.558 583.791C268.566 597.774 290.744 604.367 308 608.349C349.138 617.842 393.079 620.349 435 614.575C447.229 612.89 460.192 611.334 472 607.653C482.885 604.26 495.361 597.729 507 600C488.25 615.523 462.569 625.839 440 634.424C400.068 649.615 357.903 661.082 315 662.961C304.256 663.431 293.667 661.842 283 661C286.878 648.568 281.313 638.047 270.715 630.829C264.247 626.425 253.988 623.422 249.458 632.043C245.551 639.477 251.974 648.332 257.04 653.421C270.073 666.512 292.534 668 310 668C362.683 668 414.895 652.79 463 632.127C476.745 626.223 489.329 617.891 503 612C491.201 628.75 470.259 640.245 453 650.6C414.487 673.708 373.332 695.465 330 708C324.883 698.942 311.992 694.346 302 694.043C295.288 693.84 288.319 697.107 290.434 704.999C293.263 715.552 307.973 718.079 317 719.155C320.324 719.551 323.717 720.464 326.816 718.681C330 716.849 331.734 713.379 335.04 711.604C339.533 709.193 345.175 708.171 350 706.495C358.726 703.466 367.519 700.169 376 696.512C409.585 682.032 442.645 665.478 473 645C468.859 650.876 463.137 655.092 457.996 660.04C444.395 673.131 429.931 685.098 415 696.651C396.199 711.198 378.005 725.807 358 738.692C350.43 743.568 343.181 749.176 335 753C331.042 745.613 320.135 741.744 312.039 743.479C305.434 744.895 299.883 752.348 303.18 759C304.471 761.605 306.737 763.813 309 765.585C315.929 771.012 325.467 773.135 332.687 766.895C335.058 764.846 335.861 761.652 338.147 759.464C342.161 755.622 347.392 753.035 352 749.997C392.993 722.971 432.611 693.149 468 659C464.126 666.015 458.742 672.281 454.338 679C445.659 692.24 437.267 705.696 428.681 719C409.588 748.581 392.007 779.992 377.287 812C352.229 866.49 335.418 923.708 322.352 982C315.239 1013.73 308.647 1045.78 304.259 1078C297.144 1130.24 296.514 1183.46 299.94 1236C300.854 1250.01 300.495 1264.01 301.866 1278C304.185 1301.67 305.804 1325.46 309.264 1349C313.023 1374.57 319.258 1399.64 324.199 1425C326.426 1436.43 328.789 1447.71 331.63 1459C332.732 1463.38 333.149 1469.59 338 1471C337.927 1462.85 335.226 1454.92 333.511 1447C330.52 1433.19 328.032 1418.9 325.464 1405C317.436 1361.56 311.108 1318.07 308.09 1274C304.992 1228.77 302.986 1182.31 306.09 1137C309.417 1088.4 317.692 1040.54 327.985 993C340.338 935.946 356.349 879.46 380.071 826C390.226 803.114 402.719 780.777 415.149 759C435.256 723.773 457.771 689.628 481.846 657C492.604 642.419 504.111 623.576 519 613C511.911 669.045 483.056 724.276 452.495 771C445.506 781.687 438.085 792.179 429.919 802C424.629 808.362 417.493 814.464 414 822C405.946 818.829 397.581 815.871 389.015 819.819C381.222 823.41 379.814 833.387 388.015 837.427C395.965 841.344 402.866 836.308 409 831.482C422.003 821.254 432.982 808.42 442.573 795C469.321 757.571 491.349 716.894 507.911 674C515.475 654.412 524.678 631.306 522 610C526.093 614.643 526.395 621.15 527.662 627C530.609 640.606 532.501 654.178 534.155 668C539.802 715.188 535.462 768.408 518.189 813C514.688 822.038 510.568 830.703 505.55 839C502.854 843.458 499.366 847.364 497 852L495 852C490.873 844.907 479.794 841.969 472 843.468C465.963 844.629 460.549 849.266 462.657 855.96C465.659 865.494 477.219 864.963 485 864.169C487.779 863.885 490.492 864.036 492.91 862.397C496.895 859.696 500.375 854.759 503.331 851C512.351 839.529 518.732 825.687 523.61 812C539.47 767.502 543.622 717.749 539.17 671C537.213 650.451 535.043 629.236 527 610C533.283 610.276 534.935 616.968 537.229 622C543.137 634.961 547.457 650.012 550.08 664C558.408 708.399 564.797 753.834 558.576 799C557.18 809.138 555.871 819.159 552.999 829C551.498 834.146 550.029 839.32 546 843C544.78 835.121 537.838 833.809 531 836.105C522.458 838.973 508.829 849.418 511.588 859.996C515.219 873.922 531.147 862.902 538 859.17C540.005 858.078 542.09 857.164 543.996 855.892C560.751 844.712 562.749 818.039 565.561 800C567.714 786.186 567 771.942 567 758C567 725.525 564.335 692.589 556.241 661C553.863 651.722 551.574 641.925 548.088 633C545.206 625.622 541.198 618.634 539 611C559.054 619.405 573.927 642.452 583.78 661C602.176 695.627 615.232 733.519 616.961 773C617.32 781.197 615.348 788.896 615 797C602.543 797.001 592.448 801.634 584.928 812C580.945 817.491 578.44 828.829 588.004 830.593C598.643 832.554 615.637 820.477 619.258 811C620.782 807.009 619.803 802.18 620.089 798C620.604 790.483 622.509 782.526 621.829 775C620.806 763.673 620.376 752.268 618.562 741C615.852 724.168 610.413 707.807 604.203 692C594.232 666.621 581.398 641.56 562 622C576.206 628.006 588.735 641.905 599.089 653.015C627.566 683.569 651.418 724.233 661.625 765C663.849 773.881 665.867 782.931 667.13 792C667.581 795.231 668.923 799.704 666.972 802.686C665.3 805.242 661.609 805.368 659.089 806.673C654.732 808.931 650.646 812.977 647.916 817.001C644.688 821.758 641.736 830.517 649.055 833.396C659.939 837.677 670.3 824.344 673.843 816C677.198 808.099 675.032 799.177 673.4 791C670.626 777.107 668.355 763.51 663.91 750C643.547 688.108 601.198 624.889 537 604L537 602C542.794 601.618 548.682 604.45 554 606.604C566.067 611.491 577.416 617.867 589 623.756C609.127 633.988 629.801 645.487 648 658.884C660.428 668.033 671.573 678.509 683 688.83C698.239 702.594 715.041 718.479 726 736C720.571 738.103 715.583 742.238 713.805 748C711.878 754.244 714.732 762.143 722.001 762.693C732.327 763.475 741.935 749.673 738.382 740.054C736.938 736.144 731.487 733.088 728.714 729.995C720.278 720.586 711.762 711.278 703.17 702.015C674.892 671.528 640.915 646.314 604 627.258C589.428 619.736 575.026 611.905 560 605.309C553.483 602.449 544.19 601.883 539 597C558.569 596.16 578.3 593.294 598 595.17C639.212 599.095 675.749 617.117 711 637.576C731.383 649.405 753.377 663.086 769 681C762.946 681.833 757.561 684.176 754.769 690.004C749.462 701.079 758.16 715.448 771 713.381C778.644 712.151 785.774 703.939 784.771 696C784.294 692.226 781.818 689.342 780.256 686C771.583 667.443 750.855 654.626 734 643.657C676.419 606.184 611.604 579.501 542 593C546.062 588.556 552.383 587.137 558 585.344C570.359 581.4 583.212 578.08 596 575.921C617.081 572.361 637.676 570.508 659 569.985C665.716 569.821 672.225 568.625 679 569.089C703.672 570.779 727.331 576.15 751 583L751 585C744.761 588.414 741.447 596.064 743.97 602.996C745.347 606.781 748.505 610.932 753 610.588C763.758 609.763 763.366 596.205 761.335 589C760.744 586.905 760.869 584.273 759.362 582.56C757.621 580.581 754.348 579.947 752 578.985C745.454 576.306 738.899 573.913 732 572.239C690.762 562.237 646.691 562.046 605 569.614C585.851 573.09 567.723 578.995 549 584C602.274 535.371 679.474 524.661 748 516C749.254 525.71 753.539 535.345 762.001 540.891C767.633 544.583 776.265 545.573 779.258 537.985C784.003 525.95 771.431 505.452 759 504.309C752.903 503.749 751.075 509.173 745.911 510.697C737.366 513.217 727.742 512.524 719 514.197C700.961 517.648 682.915 520.096 665 524.336C635.696 531.272 606.718 542.433 580 556.259C568.966 561.968 559.482 570.166 550 578.08C545.498 581.838 541.324 586.518 536 589C535.659 582.512 540.143 577.783 544.084 573C551.885 563.533 560.605 555.063 568.83 546.001C592.969 519.405 623.829 499.093 654 479.947C672.539 468.182 691.663 455.467 712 447C712.325 449.995 712.984 452.465 714.804 454.957C725.085 469.03 750.969 455.345 739.347 440.105C734.017 433.115 726.346 434.431 719 436.045C704.25 439.284 690.95 447.909 678 455.424C635.991 479.806 594.864 508.17 561.914 544C553.941 552.67 546.199 561.575 539.127 571C536.026 575.132 532.372 578.964 531 584C524.621 582.063 526 575.571 526 570C526 556.529 524.759 542.355 526.576 529C527.89 519.354 528.475 509.539 530.51 500C535.355 477.283 543.551 455.566 551.997 434C557.52 419.899 562.628 405.566 569.436 392C573.453 383.995 578.663 376.791 583 369C591.483 375.842 603.357 375.369 611.985 368.585C618.771 363.249 622.374 352.497 613.956 346.728C606.12 341.357 596.58 344.797 589.925 350.04C585.348 353.646 582.524 358.361 579.116 363C572.21 372.4 565.923 382.309 561.17 393C544.521 430.449 527.383 471.028 522.285 512C519.28 536.148 521.094 559.849 523 584C514.531 583.9 512.717 578.984 509.248 572C503.662 560.756 498.824 548.238 495.99 536C487.529 499.468 482.512 461.645 485.09 424C485.841 413.02 487.463 401.801 489.615 391C490.566 386.228 492.572 381.873 493 377C504.803 382.933 518.221 377.518 526.696 367.96C531.418 362.634 536.405 352.08 527.895 347.573C520.84 343.835 510.96 347.861 504.91 351.879C501.591 354.083 497.328 356.179 494.754 359.263C492.159 362.371 491.375 366.293 490.064 370C486.361 380.471 484.198 391.044 482.438 402C480.089 416.629 480 431.227 480 446C480 483.345 485.586 521.779 498.436 557C502.302 567.596 508.269 576.879 513 587C494.488 573.959 482.847 548.387 474.548 528C454.642 479.102 445 427.734 445 375C457.93 374.724 469.878 366.182 476.096 355C479.534 348.816 482.625 338.698 472.999 336.319C466.458 334.702 458.826 339.226 454 343.198C449.051 347.273 443.486 351.832 441.144 358C439.025 363.582 440.52 369.295 440.91 375C441.386 381.947 441 389.038 441 396C441 444.159 453.255 494.325 473.309 538C479.692 551.901 488.495 563.826 496 577M739 406C744.579 404.285 747.791 397.984 752.001 394.093C758.71 387.894 766.732 383.104 775 379.309C794.326 370.436 816.805 365.968 838 365.039C848.75 364.568 859.31 365.993 870 366C868.306 371.926 866.032 376.687 866.001 383C865.981 387.031 865.948 391.01 866.591 395C867.999 403.739 875.971 414.856 884.467 404.891C890.684 397.6 890.154 385.842 889.165 377C888.723 373.048 888.361 368.391 885.451 365.322C882.939 362.672 879.277 363.547 876 363.335C867.05 362.754 857.961 362 849 362C819.816 361.998 788.63 365.333 763 380.604C753.535 386.244 741.237 394.435 739 406z"/>
</svg>
