<?xml version="1.0" encoding="UTF-8"?>
<svg xmlns="http://www.w3.org/2000/svg" xmlns:xlink="http://www.w3.org/1999/xlink" width="32px" height="32px" viewBox="0 0 32 32" version="1.1">
<g id="surface1">
<path style=" stroke:none;fill-rule:nonzero;fill:rgb(7.843137%,8.235294%,8.235294%);fill-opacity:1;" d="M 16.476562 5.320312 C 16.429688 5.199219 16.449219 5.066406 16.40625 4.941406 C 16.355469 4.773438 16.210938 4.617188 16.238281 4.441406 C 16.265625 4.289062 16.441406 4.089844 16.621094 4.238281 L 16.671875 4.238281 C 16.746094 4.109375 16.652344 4.007812 16.476562 4.023438 C 16.347656 4.035156 16.246094 4.09375 16.175781 4.179688 C 15.925781 4.46875 16.210938 4.753906 16.273438 5.039062 C 16.308594 5.203125 16.320312 5.375 16.328125 5.539062 C 16.332031 5.640625 16.316406 5.742188 16.351562 5.839844 C 16.441406 5.769531 16.4375 5.675781 16.460938 5.578125 C 16.492188 5.464844 16.542969 5.347656 16.59375 5.238281 C 16.804688 4.785156 17.09375 4.230469 17.597656 3.941406 C 17.660156 4.046875 17.761719 4.164062 17.914062 4.191406 C 18.179688 4.242188 18.273438 4.039062 18.121094 3.878906 C 18.089844 3.847656 18.050781 3.816406 18.011719 3.792969 C 17.734375 3.632812 17.539062 3.824219 17.351562 3.980469 C 16.9375 4.324219 16.59375 4.84375 16.476562 5.320312 M 20.570312 6.019531 C 20.761719 6.050781 20.738281 5.941406 20.828125 5.839844 C 20.882812 5.773438 20.960938 5.71875 21.03125 5.664062 C 21.417969 5.378906 21.898438 5.085938 22.398438 4.960938 C 22.414062 5.175781 22.6875 5.394531 22.933594 5.449219 C 23.109375 5.492188 23.347656 5.492188 23.371094 5.300781 C 23.402344 5.03125 22.941406 4.902344 22.691406 4.839844 C 22.613281 4.824219 22.523438 4.800781 22.445312 4.804688 C 22.292969 4.8125 22.117188 4.925781 21.984375 4.980469 C 21.476562 5.195312 21.050781 5.476562 20.667969 5.820312 C 20.597656 5.683594 20.460938 5.585938 20.324219 5.496094 C 20.089844 5.332031 19.835938 5.167969 19.546875 5.078125 L 19.546875 5.039062 C 19.757812 4.988281 19.945312 4.871094 20.132812 4.777344 C 20.554688 4.5625 20.964844 4.316406 21.398438 4.121094 C 21.464844 4.324219 21.785156 4.445312 22.03125 4.417969 C 22.21875 4.398438 22.257812 4.25 22.144531 4.140625 C 21.957031 3.960938 21.613281 3.925781 21.347656 3.988281 C 21.1875 4.03125 21.027344 4.144531 20.886719 4.21875 C 20.601562 4.375 20.3125 4.527344 20.03125 4.683594 C 19.875 4.769531 19.71875 4.847656 19.570312 4.9375 C 19.507812 4.976562 19.425781 5.011719 19.40625 5.082031 C 19.371094 5.222656 19.648438 5.273438 19.765625 5.328125 C 19.992188 5.429688 20.210938 5.574219 20.398438 5.722656 C 20.523438 5.816406 20.609375 5.875 20.570312 6.019531 M 16.085938 8.140625 L 16.160156 8.140625 C 16.1875 7.851562 16.371094 7.589844 16.574219 7.359375 C 16.960938 6.910156 17.484375 6.460938 18.082031 6.199219 C 18.089844 6.289062 18.113281 6.378906 18.167969 6.460938 C 18.277344 6.628906 18.65625 6.851562 18.839844 6.609375 C 18.984375 6.414062 18.699219 6.128906 18.5 6.058594 L 18.523438 5.980469 C 18.398438 5.953125 18.296875 5.992188 18.179688 6.035156 C 17.984375 6.113281 17.796875 6.207031 17.621094 6.3125 C 17.199219 6.570312 16.820312 6.890625 16.515625 7.238281 C 16.273438 7.515625 16.085938 7.792969 16.085938 8.140625 M 12.089844 11.539062 C 11.089844 10.949219 10.464844 10.046875 10.105469 9.101562 C 9.960938 8.714844 9.820312 8.308594 9.820312 7.898438 C 10.0625 7.851562 10.195312 7.589844 10.210938 7.398438 C 10.21875 7.285156 10.160156 7.144531 9.992188 7.140625 C 9.816406 7.140625 9.660156 7.304688 9.652344 7.441406 C 9.632812 7.785156 9.710938 8.121094 9.785156 8.460938 C 9.996094 9.40625 10.476562 10.367188 11.285156 11.078125 C 11.476562 11.25 11.6875 11.410156 11.917969 11.539062 C 12.078125 11.628906 12.28125 11.695312 12.40625 11.820312 C 12.1875 11.777344 11.964844 11.761719 11.746094 11.714844 C 11.511719 11.664062 11.28125 11.578125 11.066406 11.492188 C 9.828125 10.984375 8.835938 9.902344 8.824219 8.738281 C 9.121094 8.714844 9.292969 8.4375 9.347656 8.21875 C 9.375 8.101562 9.375 7.898438 9.164062 7.910156 C 8.933594 7.921875 8.714844 8.1875 8.699219 8.359375 C 8.691406 8.445312 8.660156 8.53125 8.660156 8.621094 C 8.648438 8.9375 8.726562 9.277344 8.84375 9.578125 C 9.175781 10.453125 9.992188 11.195312 10.992188 11.59375 C 11.316406 11.722656 11.644531 11.789062 11.992188 11.859375 C 11.769531 11.960938 11.53125 11.960938 11.285156 11.960938 C 11.027344 11.960938 10.78125 11.957031 10.527344 11.929688 C 9.328125 11.792969 8.183594 11.484375 7.3125 10.761719 C 7.222656 10.683594 7.023438 10.550781 7.011719 10.441406 C 7.003906 10.375 7.085938 10.3125 7.121094 10.261719 C 7.214844 10.132812 7.28125 9.953125 7.257812 9.800781 C 7.242188 9.707031 7.167969 9.621094 7.042969 9.625 C 6.757812 9.628906 6.632812 10.015625 6.65625 10.199219 C 6.675781 10.335938 6.800781 10.421875 6.898438 10.519531 C 7.097656 10.714844 7.292969 10.90625 7.53125 11.070312 C 8.570312 11.789062 9.980469 12.039062 11.308594 12.039062 C 11.144531 12.101562 10.972656 12.105469 10.796875 12.128906 C 10.460938 12.167969 10.136719 12.195312 9.796875 12.199219 C 9.585938 12.203125 9.378906 12.226562 9.164062 12.21875 C 8.3125 12.1875 7.488281 12.070312 6.703125 11.800781 L 6.703125 11.761719 C 7.019531 11.601562 6.804688 11.042969 6.410156 11.109375 C 6.113281 11.15625 6.085938 11.515625 6.253906 11.675781 C 6.546875 11.957031 7.085938 12.085938 7.507812 12.167969 C 8.507812 12.355469 9.578125 12.40625 10.601562 12.292969 C 10.898438 12.257812 11.214844 12.226562 11.503906 12.152344 C 11.769531 12.085938 12.074219 11.953125 12.355469 12 C 11.898438 12.308594 11.273438 12.515625 10.722656 12.6875 C 9.75 12.992188 8.722656 13.222656 7.675781 13.257812 C 7.414062 13.269531 7.15625 13.238281 6.898438 13.21875 C 6.992188 12.972656 6.855469 12.761719 6.597656 12.617188 C 6.441406 12.527344 6.191406 12.46875 6.078125 12.640625 C 5.984375 12.789062 6.140625 12.964844 6.265625 13.070312 C 6.582031 13.332031 7.128906 13.359375 7.554688 13.359375 C 8.839844 13.359375 10.113281 13.054688 11.285156 12.640625 C 11.617188 12.523438 11.925781 12.359375 12.257812 12.238281 C 11.972656 12.574219 11.460938 12.804688 11.039062 13.011719 C 10.101562 13.472656 9.097656 13.910156 8.042969 14.160156 C 7.917969 13.980469 7.605469 13.886719 7.359375 13.882812 C 7.195312 13.875 7.027344 13.941406 7.078125 14.101562 C 7.148438 14.3125 7.503906 14.363281 7.726562 14.382812 C 7.808594 14.390625 7.890625 14.410156 7.964844 14.375 C 8.042969 14.335938 8.085938 14.269531 8.164062 14.230469 C 8.273438 14.183594 8.414062 14.164062 8.53125 14.128906 C 8.742188 14.070312 8.957031 14.003906 9.164062 13.929688 C 9.980469 13.640625 10.789062 13.308594 11.527344 12.898438 C 11.425781 13.015625 11.289062 13.101562 11.164062 13.199219 C 10.832031 13.460938 10.476562 13.703125 10.113281 13.933594 C 9.65625 14.222656 9.210938 14.515625 8.726562 14.773438 C 8.539062 14.871094 8.363281 14.984375 8.164062 15.058594 C 8.066406 14.914062 7.800781 14.835938 7.605469 14.871094 C 7.445312 14.898438 7.308594 15.046875 7.390625 15.179688 C 7.421875 15.230469 7.476562 15.277344 7.53125 15.3125 C 7.699219 15.421875 7.933594 15.460938 8.109375 15.339844 C 8.164062 15.296875 8.183594 15.234375 8.242188 15.1875 C 8.339844 15.113281 8.464844 15.0625 8.578125 15 C 9.578125 14.460938 10.542969 13.863281 11.40625 13.179688 C 11.3125 13.320312 11.179688 13.445312 11.074219 13.578125 C 10.863281 13.84375 10.65625 14.113281 10.449219 14.378906 C 9.980469 14.972656 9.554688 15.601562 9.195312 16.238281 C 8.585938 17.328125 8.175781 18.472656 7.855469 19.640625 C 7.683594 20.273438 7.523438 20.914062 7.414062 21.558594 C 7.242188 22.605469 7.226562 23.667969 7.308594 24.71875 C 7.332031 25 7.324219 25.28125 7.355469 25.558594 C 7.414062 26.035156 7.453125 26.507812 7.539062 26.980469 C 7.628906 27.492188 7.78125 27.992188 7.902344 28.5 C 7.957031 28.730469 8.011719 28.953125 8.082031 29.179688 C 8.109375 29.269531 8.121094 29.390625 8.238281 29.421875 C 8.234375 29.257812 8.171875 29.097656 8.128906 28.941406 C 8.054688 28.664062 7.996094 28.378906 7.933594 28.101562 C 7.738281 27.230469 7.582031 26.363281 7.507812 25.480469 C 7.433594 24.574219 7.382812 23.644531 7.460938 22.738281 C 7.539062 21.769531 7.742188 20.8125 7.992188 19.859375 C 8.292969 18.71875 8.683594 17.589844 9.261719 16.519531 C 9.511719 16.0625 9.816406 15.617188 10.117188 15.179688 C 10.609375 14.476562 11.15625 13.792969 11.742188 13.140625 C 12.003906 12.847656 12.285156 12.472656 12.648438 12.261719 C 12.476562 13.382812 11.773438 14.484375 11.027344 15.421875 C 10.859375 15.632812 10.675781 15.84375 10.476562 16.039062 C 10.347656 16.167969 10.175781 16.289062 10.089844 16.441406 C 9.894531 16.375 9.691406 16.316406 9.480469 16.394531 C 9.292969 16.46875 9.257812 16.667969 9.457031 16.75 C 9.648438 16.828125 9.820312 16.726562 9.96875 16.628906 C 10.285156 16.425781 10.550781 16.167969 10.785156 15.898438 C 11.4375 15.152344 11.976562 14.335938 12.378906 13.480469 C 12.5625 13.089844 12.789062 12.625 12.722656 12.199219 C 12.820312 12.292969 12.828125 12.421875 12.859375 12.539062 C 12.933594 12.8125 12.976562 13.082031 13.019531 13.359375 C 13.15625 14.304688 13.050781 15.367188 12.628906 16.261719 C 12.542969 16.441406 12.445312 16.613281 12.320312 16.78125 C 12.253906 16.871094 12.171875 16.949219 12.113281 17.039062 L 12.0625 17.039062 C 11.964844 16.898438 11.695312 16.839844 11.503906 16.871094 C 11.355469 16.894531 11.222656 16.984375 11.277344 17.121094 C 11.347656 17.308594 11.628906 17.300781 11.820312 17.285156 C 11.886719 17.277344 11.953125 17.28125 12.011719 17.246094 C 12.109375 17.195312 12.195312 17.09375 12.265625 17.019531 C 12.488281 16.789062 12.640625 16.515625 12.761719 16.238281 C 13.148438 15.351562 13.25 14.355469 13.140625 13.421875 C 13.09375 13.007812 13.039062 12.585938 12.84375 12.199219 C 12.996094 12.207031 13.039062 12.339844 13.09375 12.441406 C 13.238281 12.699219 13.34375 13 13.40625 13.28125 C 13.609375 14.167969 13.765625 15.078125 13.613281 15.980469 C 13.578125 16.183594 13.546875 16.382812 13.476562 16.578125 C 13.441406 16.683594 13.40625 16.785156 13.308594 16.859375 C 13.277344 16.703125 13.109375 16.675781 12.941406 16.722656 C 12.734375 16.78125 12.402344 16.988281 12.46875 17.199219 C 12.558594 17.476562 12.945312 17.257812 13.113281 17.183594 C 13.160156 17.160156 13.210938 17.144531 13.257812 17.117188 C 13.667969 16.894531 13.714844 16.359375 13.785156 16 C 13.835938 15.722656 13.820312 15.4375 13.820312 15.160156 C 13.820312 14.511719 13.753906 13.851562 13.554688 13.21875 C 13.5 13.035156 13.441406 12.839844 13.359375 12.660156 C 13.289062 12.511719 13.191406 12.371094 13.136719 12.21875 C 13.625 12.386719 13.988281 12.847656 14.226562 13.21875 C 14.675781 13.914062 14.996094 14.671875 15.035156 15.460938 C 15.046875 15.625 14.996094 15.777344 14.988281 15.941406 C 14.683594 15.941406 14.4375 16.03125 14.253906 16.238281 C 14.160156 16.351562 14.097656 16.578125 14.332031 16.613281 C 14.589844 16.652344 15.003906 16.410156 15.09375 16.21875 C 15.128906 16.140625 15.105469 16.042969 15.113281 15.960938 C 15.125 15.808594 15.171875 15.652344 15.15625 15.5 C 15.128906 15.273438 15.121094 15.046875 15.074219 14.820312 C 15.007812 14.484375 14.875 14.15625 14.726562 13.839844 C 14.484375 13.332031 14.167969 12.832031 13.695312 12.441406 C 14.042969 12.558594 14.347656 12.839844 14.601562 13.058594 C 15.292969 13.671875 15.875 14.484375 16.125 15.300781 C 16.179688 15.476562 16.226562 15.660156 16.257812 15.839844 C 16.269531 15.90625 16.304688 15.992188 16.253906 16.054688 C 16.214844 16.105469 16.125 16.105469 16.0625 16.132812 C 15.957031 16.179688 15.855469 16.257812 15.789062 16.339844 C 15.710938 16.433594 15.640625 16.609375 15.820312 16.667969 C 16.082031 16.753906 16.335938 16.488281 16.421875 16.320312 C 16.503906 16.160156 16.453125 15.984375 16.410156 15.820312 C 16.34375 15.542969 16.289062 15.269531 16.179688 15 C 15.683594 13.761719 14.652344 12.496094 13.085938 12.078125 L 13.085938 12.039062 C 13.230469 12.03125 13.371094 12.089844 13.5 12.132812 C 13.796875 12.230469 14.074219 12.355469 14.355469 12.476562 C 14.84375 12.679688 15.347656 12.910156 15.792969 13.175781 C 16.097656 13.359375 16.367188 13.570312 16.644531 13.777344 C 17.015625 14.050781 17.425781 14.371094 17.695312 14.71875 C 17.5625 14.761719 17.441406 14.84375 17.398438 14.960938 C 17.351562 15.085938 17.417969 15.242188 17.597656 15.253906 C 17.847656 15.269531 18.082031 14.992188 17.996094 14.800781 C 17.960938 14.722656 17.828125 14.660156 17.761719 14.601562 C 17.554688 14.410156 17.347656 14.226562 17.136719 14.039062 C 16.449219 13.429688 15.621094 12.925781 14.71875 12.546875 C 14.367188 12.394531 14.015625 12.238281 13.648438 12.105469 C 13.488281 12.050781 13.261719 12.039062 13.136719 11.941406 C 13.613281 11.921875 14.09375 11.867188 14.574219 11.902344 C 15.578125 11.980469 16.46875 12.34375 17.328125 12.75 C 17.824219 12.988281 18.359375 13.261719 18.742188 13.621094 C 18.59375 13.636719 18.464844 13.683594 18.394531 13.800781 C 18.265625 14.023438 18.476562 14.308594 18.789062 14.269531 C 18.976562 14.242188 19.152344 14.078125 19.125 13.921875 C 19.113281 13.84375 19.054688 13.785156 19.015625 13.71875 C 18.804688 13.347656 18.300781 13.09375 17.890625 12.875 C 16.484375 12.125 14.90625 11.589844 13.210938 11.859375 C 13.308594 11.769531 13.460938 11.742188 13.597656 11.707031 C 13.902344 11.628906 14.214844 11.5625 14.527344 11.519531 C 15.039062 11.445312 15.542969 11.410156 16.0625 11.398438 C 16.222656 11.394531 16.382812 11.371094 16.546875 11.382812 C 17.148438 11.414062 17.726562 11.523438 18.304688 11.660156 L 18.304688 11.699219 C 18.152344 11.769531 18.070312 11.921875 18.132812 12.058594 C 18.164062 12.136719 18.242188 12.21875 18.351562 12.210938 C 18.613281 12.195312 18.605469 11.925781 18.554688 11.78125 C 18.539062 11.738281 18.542969 11.683594 18.507812 11.652344 C 18.464844 11.613281 18.382812 11.597656 18.328125 11.578125 C 18.167969 11.527344 18.007812 11.476562 17.839844 11.445312 C 16.835938 11.246094 15.761719 11.242188 14.746094 11.390625 C 14.277344 11.460938 13.835938 11.578125 13.378906 11.679688 C 14.679688 10.707031 16.558594 10.492188 18.230469 10.320312 C 18.261719 10.515625 18.363281 10.707031 18.570312 10.816406 C 18.707031 10.890625 18.917969 10.910156 18.992188 10.757812 C 19.109375 10.519531 18.800781 10.109375 18.5 10.085938 C 18.347656 10.074219 18.304688 10.183594 18.179688 10.214844 C 17.972656 10.265625 17.734375 10.25 17.523438 10.285156 C 17.082031 10.351562 16.644531 10.402344 16.207031 10.488281 C 15.492188 10.625 14.785156 10.847656 14.136719 11.125 C 13.867188 11.238281 13.636719 11.402344 13.40625 11.5625 C 13.292969 11.636719 13.191406 11.730469 13.0625 11.78125 C 13.054688 11.648438 13.164062 11.554688 13.261719 11.460938 C 13.449219 11.269531 13.664062 11.101562 13.863281 10.921875 C 14.453125 10.386719 15.203125 9.980469 15.9375 9.597656 C 16.390625 9.363281 16.855469 9.109375 17.351562 8.941406 C 17.359375 9 17.375 9.050781 17.421875 9.097656 C 17.671875 9.378906 18.300781 9.105469 18.019531 8.800781 C 17.890625 8.664062 17.703125 8.6875 17.523438 8.722656 C 17.164062 8.785156 16.839844 8.957031 16.523438 9.109375 C 15.5 9.597656 14.496094 10.164062 13.695312 10.878906 C 13.5 11.054688 13.3125 11.230469 13.140625 11.421875 C 13.0625 11.503906 12.976562 11.578125 12.941406 11.679688 C 12.785156 11.640625 12.820312 11.511719 12.820312 11.398438 C 12.820312 11.128906 12.789062 10.847656 12.832031 10.578125 C 12.867188 10.386719 12.878906 10.191406 12.929688 10 C 13.046875 9.546875 13.246094 9.109375 13.453125 8.679688 C 13.585938 8.398438 13.710938 8.109375 13.878906 7.839844 C 13.976562 7.679688 14.101562 7.535156 14.207031 7.378906 C 14.414062 7.515625 14.703125 7.507812 14.914062 7.371094 C 15.082031 7.265625 15.167969 7.050781 14.964844 6.933594 C 14.773438 6.828125 14.539062 6.894531 14.378906 7 C 14.265625 7.074219 14.195312 7.167969 14.113281 7.261719 C 13.945312 7.449219 13.792969 7.644531 13.675781 7.859375 C 13.269531 8.609375 12.851562 9.421875 12.730469 10.238281 C 12.65625 10.722656 12.699219 11.195312 12.746094 11.679688 C 12.539062 11.679688 12.496094 11.578125 12.410156 11.441406 C 12.273438 11.214844 12.15625 10.964844 12.089844 10.71875 C 11.882812 9.988281 11.757812 9.234375 11.824219 8.480469 C 11.839844 8.261719 11.878906 8.035156 11.933594 7.820312 C 11.957031 7.722656 12.003906 7.636719 12.015625 7.539062 C 12.304688 7.660156 12.628906 7.550781 12.835938 7.359375 C 12.953125 7.253906 13.074219 7.042969 12.867188 6.953125 C 12.695312 6.875 12.453125 6.957031 12.304688 7.039062 C 12.222656 7.082031 12.121094 7.125 12.058594 7.183594 C 11.996094 7.246094 11.976562 7.324219 11.945312 7.398438 C 11.851562 7.609375 11.800781 7.820312 11.757812 8.039062 C 11.699219 8.332031 11.699219 8.625 11.699219 8.921875 C 11.699219 9.667969 11.835938 10.4375 12.148438 11.140625 C 12.242188 11.351562 12.386719 11.539062 12.503906 11.738281 C 12.050781 11.480469 11.769531 10.96875 11.566406 10.558594 C 11.082031 9.582031 10.84375 8.554688 10.84375 7.5 C 11.160156 7.496094 11.453125 7.324219 11.601562 7.101562 C 11.6875 6.976562 11.761719 6.773438 11.527344 6.726562 C 11.367188 6.695312 11.183594 6.785156 11.066406 6.863281 C 10.945312 6.945312 10.808594 7.035156 10.75 7.160156 C 10.699219 7.273438 10.734375 7.386719 10.746094 7.5 C 10.757812 7.640625 10.746094 7.78125 10.746094 7.921875 C 10.746094 8.882812 11.046875 9.886719 11.535156 10.761719 C 11.691406 11.039062 11.90625 11.277344 12.089844 11.539062 M 18.011719 8.121094 C 18.148438 8.085938 18.226562 7.960938 18.328125 7.882812 C 18.492188 7.757812 18.6875 7.660156 18.886719 7.585938 C 19.359375 7.410156 19.90625 7.320312 20.421875 7.300781 C 20.683594 7.292969 20.941406 7.320312 21.203125 7.320312 C 21.160156 7.4375 21.105469 7.535156 21.105469 7.660156 C 21.105469 7.742188 21.105469 7.820312 21.121094 7.898438 C 21.15625 8.074219 21.347656 8.296875 21.554688 8.097656 C 21.707031 7.953125 21.695312 7.71875 21.671875 7.539062 C 21.660156 7.460938 21.652344 7.367188 21.578125 7.304688 C 21.519531 7.253906 21.429688 7.269531 21.347656 7.265625 C 21.132812 7.253906 20.910156 7.238281 20.691406 7.238281 C 19.980469 7.238281 19.21875 7.308594 18.59375 7.613281 C 18.363281 7.726562 18.066406 7.890625 18.011719 8.121094 Z M 18.011719 8.121094 "/>
</g>
</svg>
